<svg width="15" height="19" viewBox="0 0 15 19" fill="none" xmlns="http://www.w3.org/2000/svg">
<g clip-path="url(#clip0_102_522)">
<path d="M7.97998 0.48291C9.10739 0.482975 10.1912 0.918259 11.0055 1.69799C11.8198 2.47772 12.3017 3.54169 12.3506 4.66804L12.355 4.85791L12.3541 8.35791C13.0238 8.35765 13.6683 8.61337 14.1556 9.07273C14.643 9.53209 14.9363 10.1604 14.9756 10.8289L14.98 10.9829V16.2329C14.98 16.9025 14.7242 17.5467 14.2649 18.0339C13.8055 18.521 13.1774 18.8143 12.509 18.8535L12.355 18.8579H3.60498C2.93542 18.8579 2.29115 18.6021 1.804 18.1428C1.31685 17.6834 1.02364 17.0553 0.984355 16.3869L0.97998 16.2329V10.9829C0.979943 10.3134 1.23577 9.66908 1.6951 9.18193C2.15444 8.69478 2.78257 8.40157 3.45098 8.36229L3.60411 8.35791L3.60498 4.85791C3.60498 3.69759 4.06592 2.58479 4.88639 1.76432C5.70686 0.943846 6.81966 0.48291 7.97998 0.48291ZM12.355 10.1079H3.60498C3.39066 10.1079 3.18381 10.1866 3.02365 10.329C2.8635 10.4714 2.76118 10.6677 2.73611 10.8805L2.72998 10.9829V16.2329C2.73001 16.4472 2.80869 16.6541 2.95111 16.8142C3.09352 16.9744 3.28976 17.0767 3.50261 17.1018L3.60498 17.1079H12.355C12.5693 17.1079 12.7762 17.0292 12.9363 16.8868C13.0965 16.7444 13.1988 16.5481 13.2239 16.3353L13.23 16.2329V10.9829C13.23 10.7686 13.1513 10.5617 13.0089 10.4016C12.8664 10.2414 12.6702 10.1391 12.4574 10.114L12.355 10.1079ZM8.85498 11.8579C9.08704 11.8579 9.3096 11.9501 9.4737 12.1142C9.63779 12.2783 9.72998 12.5008 9.72998 12.7329C9.72998 12.965 9.63779 13.1875 9.4737 13.3516C9.3096 13.5157 9.08704 13.6079 8.85498 13.6079V15.3579H7.10498V13.6079C6.87292 13.6079 6.65036 13.5157 6.48626 13.3516C6.32217 13.1875 6.22998 12.965 6.22998 12.7329C6.22998 12.5008 6.32217 12.2783 6.48626 12.1142C6.65036 11.9501 6.87292 11.8579 7.10498 11.8579H8.85498ZM7.97998 2.23291C7.31042 2.23287 6.66615 2.48869 6.179 2.94803C5.69185 3.40737 5.39864 4.0355 5.35936 4.70391L5.35498 4.85791L5.35411 8.35791H10.6041L10.605 4.85791C10.605 4.16172 10.3284 3.49404 9.83614 3.00175C9.34385 2.50947 8.67617 2.23291 7.97998 2.23291Z" fill="#9A9A9A"/>
</g>
<defs>
<clipPath id="clip0_102_522">
<rect width="14" height="18.375" fill="white" transform="translate(0.97998 0.48291)"/>
</clipPath>
</defs>
</svg>
