<svg width="17" height="16" viewBox="0 0 17 16" fill="none" xmlns="http://www.w3.org/2000/svg">
<path d="M14.85 0H1.71C1.37223 0.101998 1.06492 0.285931 0.815423 0.535424C0.56593 0.784917 0.381997 1.09223 0.279999 1.43L0.279999 14.57C0.381997 14.9078 0.56593 15.2151 0.815423 15.4646C1.06492 15.7141 1.37223 15.898 1.71 16H8.55V9.92H6.35V7.73H8.55V6C8.53954 5.55482 8.62152 5.1123 8.79078 4.70042C8.96004 4.28853 9.2129 3.91623 9.53336 3.60704C9.85383 3.29785 10.2349 3.0585 10.6526 2.90409C11.0703 2.74969 11.5155 2.6836 11.96 2.71C12.4858 2.70564 13.011 2.74578 13.53 2.83V5H11.97C10.97 5 10.78 5.5 10.78 6.2V7.73H13.56L13.2 9.92H10.78V16H14.85C15.1878 15.898 15.4951 15.7141 15.7446 15.4646C15.9941 15.2151 16.178 14.9078 16.28 14.57V1.43C16.178 1.09223 15.9941 0.784917 15.7446 0.535424C15.4951 0.285931 15.1878 0.101998 14.85 0Z" fill="#4D5F71"/>
</svg>
