<svg width="17" height="16" viewBox="0 0 17 16" fill="none" xmlns="http://www.w3.org/2000/svg">
<path d="M3.28313 0.725024C2.77688 0.921899 2.34875 1.1844 1.92063 1.61252C1.4925 2.03752 1.23 2.46877 1.03313 2.9719C0.842505 3.4594 0.71438 4.01877 0.67688 4.83752C0.63938 5.65627 0.630005 5.91877 0.630005 8.00627C0.630005 10.0938 0.63938 10.3563 0.67688 11.175C0.71438 11.9938 0.84563 12.5531 1.03313 13.0406C1.23 13.5469 1.4925 13.975 1.92063 14.4031C2.34875 14.8313 2.77688 15.0938 3.28313 15.2906C3.77063 15.4813 4.33001 15.6094 5.14876 15.6469C5.9675 15.6844 6.23001 15.6938 8.31751 15.6938C10.405 15.6938 10.6675 15.6844 11.4863 15.6469C12.305 15.6094 12.8644 15.4781 13.3519 15.2906C13.8581 15.0938 14.2863 14.8313 14.7144 14.4031C15.1425 13.975 15.405 13.5469 15.6019 13.0406C15.7925 12.5531 15.9206 11.9938 15.9581 11.175C15.9956 10.3563 16.005 10.0938 16.005 8.00627C16.005 5.91877 15.9956 5.65627 15.9581 4.83752C15.9206 4.01877 15.7894 3.4594 15.6019 2.9719C15.405 2.46877 15.1425 2.03752 14.7175 1.61252C14.2894 1.1844 13.8613 0.921899 13.355 0.725024C12.8675 0.534399 12.3081 0.406274 11.4894 0.368774C10.6706 0.331274 10.4081 0.321899 8.32063 0.321899C6.23313 0.321899 5.97063 0.331274 5.15188 0.368774C4.33 0.403149 3.77063 0.534399 3.28313 0.725024ZM11.4238 1.75002C12.1738 1.7844 12.58 1.9094 12.8519 2.01565C13.2113 2.15627 13.4675 2.3219 13.7363 2.59065C14.005 2.8594 14.1706 3.11565 14.3113 3.47502C14.4175 3.7469 14.5425 4.15315 14.5769 4.90315C14.6144 5.71252 14.6206 5.95627 14.6206 8.0094C14.6206 10.0625 14.6113 10.3063 14.5769 11.1157C14.5425 11.8657 14.4175 12.2719 14.3113 12.5438C14.1706 12.9031 14.005 13.1594 13.7363 13.4282C13.4675 13.6969 13.2113 13.8625 12.8519 14.0031C12.58 14.1094 12.1738 14.2344 11.4238 14.2688C10.6144 14.3063 10.3706 14.3125 8.31751 14.3125C6.26438 14.3125 6.02063 14.3032 5.21126 14.2688C4.46126 14.2344 4.055 14.1094 3.78313 14.0031C3.42375 13.8625 3.16751 13.6969 2.89876 13.4282C2.63001 13.1594 2.46438 12.9031 2.32375 12.5438C2.2175 12.2719 2.0925 11.8657 2.05813 11.1157C2.02063 10.3063 2.01438 10.0625 2.01438 8.0094C2.01438 5.95627 2.02375 5.71252 2.05813 4.90315C2.0925 4.15315 2.2175 3.7469 2.32375 3.47502C2.46438 3.11565 2.63001 2.8594 2.89876 2.59065C3.16751 2.3219 3.42375 2.15627 3.78313 2.01565C4.055 1.9094 4.46126 1.7844 5.21126 1.75002C6.02063 1.71252 6.26438 1.70627 8.31751 1.70627C10.3706 1.70627 10.6144 1.71252 11.4238 1.75002Z" fill="#4D5F71"/>
<path d="M4.37064 8.00937C4.37064 10.1906 6.13939 11.9563 8.31751 11.9563C10.4956 11.9563 12.2644 10.1875 12.2644 8.00937C12.2644 5.83125 10.4988 4.0625 8.31751 4.0625C6.13626 4.0625 4.37064 5.82812 4.37064 8.00937ZM10.88 8.00937C10.88 9.425 9.73314 10.5719 8.31751 10.5719C6.90189 10.5719 5.75501 9.425 5.75501 8.00937C5.75501 6.59375 6.90189 5.44688 8.31751 5.44688C9.73314 5.44688 10.88 6.59375 10.88 8.00937Z" fill="#4D5F71"/>
<path d="M12.4237 4.82812C12.9329 4.82812 13.3456 4.41539 13.3456 3.90625C13.3456 3.39711 12.9329 2.98438 12.4237 2.98438C11.9146 2.98438 11.5019 3.39711 11.5019 3.90625C11.5019 4.41539 11.9146 4.82812 12.4237 4.82812Z" fill="#4D5F71"/>
</svg>
