<svg width="17" height="16" viewBox="0 0 17 16" fill="none" xmlns="http://www.w3.org/2000/svg">
<path d="M15.09 0.000173849H1.46C1.1514 -0.00250872 0.854244 0.116841 0.633233 0.332232C0.412223 0.547623 0.285262 0.841611 0.279999 1.15017L0.279999 14.8502C0.285262 15.1587 0.412223 15.4527 0.633233 15.6681C0.854244 15.8835 1.1514 16.0029 1.46 16.0002H15.1C15.4086 16.0029 15.7058 15.8835 15.9268 15.6681C16.1478 15.4527 16.2747 15.1587 16.28 14.8502V1.15017C16.2774 0.996521 16.2445 0.844885 16.1833 0.703929C16.1221 0.562973 16.0337 0.435458 15.9232 0.328666C15.8127 0.221874 15.6823 0.137898 15.5393 0.081535C15.3963 0.0251716 15.2437 -0.00247515 15.09 0.000173849ZM5.03 13.6302H2.65V6.00017H5.03V13.6302ZM3.84 5.00017C3.56837 5.00203 3.30224 4.92368 3.07494 4.77494C2.84765 4.6262 2.6693 4.4137 2.56226 4.16404C2.45521 3.91439 2.42422 3.6387 2.47317 3.37151C2.52213 3.10432 2.64884 2.85753 2.83744 2.66204C3.02605 2.46655 3.26815 2.33108 3.53341 2.27258C3.79867 2.21409 4.07529 2.23518 4.32862 2.33321C4.58195 2.43124 4.80071 2.60186 4.9575 2.82368C5.11428 3.0455 5.20212 3.30865 5.21 3.58017C5.21672 3.76425 5.18626 3.94779 5.12042 4.11982C5.05459 4.29185 4.95474 4.44884 4.82685 4.5814C4.69896 4.71396 4.54565 4.81937 4.37609 4.89132C4.20653 4.96327 4.0242 5.0003 3.84 5.00017ZM13.91 13.6802H11.54V9.92017C11.54 9.04017 11.54 7.92017 10.31 7.92017C9.08 7.92017 8.89 8.92017 8.89 9.92017V13.6902H6.51V6.00017H8.79V7.00017C9.01902 6.61109 9.34914 6.29129 9.74529 6.07473C10.1414 5.85816 10.5888 5.75292 11.04 5.77017C13.44 5.77017 13.88 7.35017 13.88 9.41017L13.91 13.6802Z" fill="#4D5F71"/>
</svg>
