<svg width="785" height="234" viewBox="0 0 785 234" fill="none" xmlns="http://www.w3.org/2000/svg">
<mask id="mask0_167_3200" style="mask-type:luminance" maskUnits="userSpaceOnUse" x="0" y="0" width="238" height="234">
<path d="M106.623 191.902H139.463C160.078 191.902 178.832 183.47 192.432 169.87C206.031 156.284 214.478 137.545 214.478 116.931C214.478 96.316 206.031 77.5911 192.432 63.9911C178.832 50.3912 160.078 41.9593 139.463 41.9593H106.623L117.904 61.5002H139.463C154.724 61.5002 168.596 67.7275 178.646 77.7772C188.695 87.8125 194.922 101.684 194.922 116.931C194.922 132.177 188.681 146.049 178.646 156.084C168.596 166.119 154.724 172.361 139.463 172.361H117.904L106.623 191.902ZM20.9725 95.9867C28.4023 95.9867 34.9303 99.852 38.6524 105.678H151.36C157.587 105.678 162.626 110.718 162.626 116.945C162.626 123.172 157.573 128.211 151.36 128.211H38.6524C34.9303 134.038 28.4023 137.903 20.9725 137.903C9.3911 137.903 0 128.526 0 116.945C0 105.364 9.3911 95.9867 20.9725 95.9867ZM77.9633 37.2208C76.6605 35.3741 75.8875 33.1265 75.8875 30.7072C75.8875 24.4942 80.9409 19.4407 87.1539 19.4407H139.463C166.305 19.4407 190.699 30.4065 208.379 48.0721C226.059 65.7377 237.025 90.1173 237.025 116.931C237.025 143.744 226.045 168.124 208.379 185.789C190.699 203.455 166.305 214.42 139.463 214.42H87.1539C80.9266 214.42 75.8875 209.381 75.8875 203.154C75.8875 200.72 76.6605 198.473 77.9633 196.64L91.9926 172.361H63.8766L46.0965 203.14C47.6283 206.046 48.5016 209.367 48.5016 212.889C48.5016 224.456 39.1105 233.847 27.5291 233.847C15.9477 233.847 6.55659 224.47 6.55659 212.889C6.55659 201.307 15.4609 192.417 26.6272 191.959L47.1559 156.428C48.931 152.548 52.8535 149.842 57.4059 149.842H139.449C148.497 149.842 156.714 146.135 162.698 140.165C168.668 134.195 172.375 125.978 172.375 116.931C172.375 107.883 168.668 99.6659 162.698 93.6962C156.728 87.7266 148.497 84.0188 139.449 84.0188H57.4059C52.9537 84.0188 49.1028 81.4277 47.2704 77.677L26.5986 41.8877C15.418 41.4296 6.49933 32.2389 6.49933 20.9582C6.49933 9.67741 15.8904 0 27.4718 0C39.0532 0 48.4443 9.37678 48.4443 20.9582C48.4443 24.4512 47.5854 27.7438 46.0822 30.6356L63.9053 61.4716H91.9926L77.9633 37.1922V37.2208Z" fill="white"/>
</mask>
<g mask="url(#mask0_167_3200)">
<path d="M265.041 -27.0566H-32.9261V266.873H265.041V-27.0566Z" fill="url(#paint0_linear_167_3200)" stroke="url(#paint1_linear_167_3200)" stroke-width="11.33" stroke-miterlimit="10"/>
</g>
<path d="M289.95 93.5101V29.9913H300.787L324.88 74.8138H319.14L342.761 29.9913H353.684V93.5101H341.472L341.315 51.1356H343.734L324.651 86.7101H318.825L299.499 51.1356H302.161V93.5101H289.95Z" fill="#3D3D3C"/>
<path d="M381.256 93.5101V67.5557L384.248 76.4458L359.252 29.9913H373.239L392.322 65.5658H384.319L403.488 29.9913H416.272L391.448 76.4458L394.44 67.5557V93.5101H381.256Z" fill="#3D3D3C"/>
<path d="M491 44.8797C494.149 50.0476 495.853 56.1318 495.853 62.488C495.853 68.8441 494.149 74.8281 491 79.9961C490.914 80.0819 490.842 80.1822 490.756 80.2681C485.574 88.6141 477.085 93.6103 468.037 93.6103H440.379V55.96L454.208 71.4782V78.1064H469.011C473.22 77.8344 477.013 75.3864 479.447 71.4782V71.3923C480.979 68.7582 481.795 65.6804 481.795 62.5023C481.795 59.3242 480.979 56.2463 479.361 53.6122C476.77 49.4321 472.561 46.8982 468.037 46.8982H454.208V64.5065L440.379 48.9883V31.2941H468.037C477.099 31.2941 485.588 36.2902 490.756 44.6363L491 44.9083V44.8797Z" fill="#3D3D3C"/>
<path d="M517.441 31.1795V54.3137L503.698 38.8814V31.1652H517.441V31.1795ZM503.698 45.9676L517.441 61.4V93.5244H503.698V45.982V45.9676Z" fill="#3D3D3C"/>
<path d="M581.174 67.5558V93.4099H567.431V89.2297C563.222 92.0356 558.369 93.4958 553.445 93.4958C546.001 93.4958 539.057 90.2318 533.789 84.3338C528.521 78.4357 525.615 70.6336 525.615 62.2876C525.615 57.5634 526.503 53.0396 528.278 48.8595L528.922 47.2275L539.601 59.2097L539.516 59.8396C539.43 60.6556 539.358 61.4716 539.358 62.2876C539.358 66.4678 540.818 70.3616 543.481 73.3536C546.144 76.3456 549.622 77.9776 553.344 77.9776C556.251 77.9776 558.999 76.9755 561.347 75.1717L556.336 67.3697L581.16 67.5558H581.174ZM541.391 54.0417L531.527 42.9757L532.172 42.0738C537.425 35.0878 545.185 31.0937 553.359 31.0937C559.014 31.0937 564.439 32.9977 569.049 36.6339C574.875 41.086 578.912 47.8001 580.444 55.5019L580.773 57.048H566.544L566.214 56.3179C565.484 54.414 564.439 52.6818 563.136 51.2359C560.474 48.2439 556.995 46.6119 553.273 46.6119C549.551 46.6119 546.072 48.2439 543.409 51.2359C542.923 51.7799 542.436 52.4098 542.035 53.054L541.391 54.0561V54.0417Z" fill="#3D3D3C"/>
<path d="M602.934 31.1795V54.3137L589.191 38.8814V31.1652H602.934V31.1795ZM589.177 45.9676L602.92 61.4V93.5244H589.177V45.982V45.9676Z" fill="#3D3D3C"/>
<path d="M666.567 31.1796V46.6119H645.624V69.5743L631.88 54.1419V46.6119H611.022V31.1796H666.582H666.567ZM631.88 61.2139L645.624 76.6462V93.5244H631.88V61.2282V61.2139Z" fill="#3D3D3C"/>
<path d="M691.162 49.6898L699.164 64.5781L683.474 93.5244H667.383L691.162 49.7041V49.6898ZM736.041 93.596H719.951L716.629 87.4259L693.739 44.8654L701.741 30.0773L736.027 93.596H736.041Z" fill="#3D3D3C"/>
<path d="M757.887 78.45L771.315 93.5101H741.725V31.1652H755.468V78.0778H757.572L757.901 78.4356L757.887 78.45ZM780.363 78.0921V93.5244H777.614L763.871 78.0921H780.363Z" fill="#3D3D3C"/>
<path d="M314.802 200.849C308.589 200.849 302.648 199.962 297.008 198.172C291.353 196.397 286.829 194.092 283.422 191.286L288.533 179.805C291.711 182.31 295.662 184.4 300.358 186.061C305.053 187.736 309.878 188.566 314.802 188.566C318.968 188.566 322.347 188.108 324.923 187.206C327.5 186.29 329.39 185.059 330.607 183.513C331.824 181.967 332.425 180.192 332.425 178.23C332.425 175.811 331.552 173.85 329.805 172.375C328.058 170.901 325.811 169.727 323.034 168.854C320.271 167.98 317.193 167.193 313.814 166.463C310.436 165.747 307.072 164.86 303.693 163.786C300.315 162.726 297.222 161.381 294.431 159.749C291.625 158.117 289.363 155.941 287.66 153.207C285.956 150.472 285.097 146.994 285.097 142.742C285.097 138.49 286.257 134.453 288.561 130.86C290.881 127.267 294.402 124.375 299.141 122.213C303.879 120.051 309.892 118.978 317.164 118.978C321.946 118.978 326.684 119.579 331.38 120.796C336.075 122.013 340.17 123.759 343.663 126.021L338.996 137.502C335.431 135.384 331.752 133.809 327.958 132.778C324.165 131.762 320.528 131.246 317.035 131.246C313.013 131.246 309.72 131.747 307.143 132.721C304.566 133.709 302.691 135.011 301.517 136.643C300.343 138.275 299.756 140.079 299.756 142.04C299.756 144.474 300.615 146.421 302.319 147.895C304.022 149.37 306.256 150.53 309.033 151.36C311.796 152.19 314.888 152.992 318.295 153.751C321.702 154.509 325.081 155.397 328.416 156.428C331.752 157.444 334.83 158.775 337.636 160.407C340.442 162.039 342.703 164.201 344.407 166.892C346.111 169.584 346.97 173.019 346.97 177.185C346.97 181.351 345.81 185.36 343.505 188.953C341.186 192.56 337.65 195.438 332.869 197.6C328.087 199.761 322.06 200.835 314.788 200.835L314.802 200.849Z" fill="#3D3D3C"/>
<path d="M398.506 200.849C392.365 200.849 386.71 199.847 381.556 197.829C376.403 195.824 371.907 192.961 368.085 189.239C364.249 185.531 361.285 181.208 359.152 176.269C357.033 171.345 355.974 165.876 355.974 159.892C355.974 153.908 357.033 148.439 359.152 143.515C361.271 138.59 364.277 134.267 368.142 130.545C372.008 126.837 376.517 123.974 381.671 121.955C386.824 119.951 392.479 118.935 398.621 118.935C405.134 118.935 411.09 120.051 416.472 122.285C421.855 124.518 426.407 127.839 430.115 132.234L420.567 141.224C417.603 138.118 414.353 135.784 410.789 134.224C407.224 132.678 403.402 131.89 399.308 131.89C395.213 131.89 391.334 132.578 387.884 133.938C384.434 135.298 381.442 137.23 378.894 139.735C376.36 142.241 374.355 145.19 372.924 148.611C371.478 152.018 370.762 155.769 370.762 159.878C370.762 163.986 371.478 167.723 372.924 171.13C374.37 174.537 376.36 177.5 378.894 180.005C381.427 182.511 384.434 184.443 387.884 185.803C391.334 187.163 395.142 187.85 399.308 187.85C403.474 187.85 407.224 187.077 410.789 185.517C414.353 183.971 417.617 181.595 420.567 178.402L430.115 187.392C426.393 191.787 421.855 195.123 416.472 197.399C411.09 199.675 405.106 200.806 398.506 200.806V200.849Z" fill="#3D3D3C"/>
<path d="M459.119 199.704H444.33V120.094H459.119V199.704ZM501.436 165.59H457.988V152.963H501.436V165.59ZM500.29 120.094H514.964V199.704H500.29V120.094Z" fill="#3D3D3C"/>
<path d="M573.759 200.849C567.617 200.849 561.905 199.833 556.637 197.771C551.369 195.724 546.802 192.847 542.937 189.125C539.072 185.417 536.08 181.065 533.947 176.097C531.828 171.13 530.769 165.733 530.769 159.892C530.769 154.051 531.828 148.54 533.947 143.572C536.065 138.605 539.072 134.281 542.937 130.602C546.802 126.923 551.355 124.06 556.58 122.013C561.805 119.965 567.531 118.935 573.759 118.935C579.986 118.935 585.583 119.937 590.823 121.955C596.062 123.96 600.586 126.808 604.408 130.488C608.231 134.167 611.208 138.504 613.342 143.515C615.46 148.525 616.52 153.98 616.52 159.892C616.52 165.804 615.46 171.244 613.342 176.212C611.223 181.179 608.245 185.517 604.408 189.239C600.586 192.961 596.048 195.824 590.823 197.829C585.598 199.833 579.9 200.849 573.759 200.849ZM573.759 187.879C577.781 187.879 581.475 187.192 584.853 185.832C588.232 184.472 591.166 182.539 593.672 180.034C596.177 177.529 598.124 174.58 599.527 171.158C600.93 167.751 601.631 164.001 601.631 159.906C601.631 155.812 600.944 152.061 599.584 148.64C598.224 145.233 596.263 142.269 593.729 139.764C591.181 137.259 588.232 135.326 584.853 133.966C581.475 132.606 577.781 131.919 573.759 131.919C569.736 131.919 565.999 132.606 562.549 133.966C559.099 135.326 556.122 137.287 553.616 139.821C551.111 142.355 549.136 145.319 547.704 148.697C546.258 152.076 545.542 155.812 545.542 159.906C545.542 164.001 546.258 167.637 547.704 171.058C549.136 174.465 551.111 177.443 553.616 179.991C556.122 182.539 559.099 184.486 562.549 185.846C565.999 187.206 569.736 187.893 573.759 187.893V187.879Z" fill="#3D3D3C"/>
<path d="M669.531 200.849C663.389 200.849 657.677 199.833 652.409 197.771C647.141 195.724 642.574 192.847 638.709 189.125C634.844 185.417 631.852 181.065 629.719 176.097C627.6 171.13 626.541 165.733 626.541 159.892C626.541 154.051 627.6 148.54 629.719 143.572C631.837 138.605 634.844 134.281 638.709 130.602C642.574 126.923 647.126 124.06 652.352 122.013C657.577 119.965 663.303 118.935 669.531 118.935C675.758 118.935 681.355 119.937 686.595 121.955C691.834 123.96 696.358 126.808 700.18 130.488C704.003 134.167 706.98 138.504 709.113 143.515C711.232 148.525 712.291 153.98 712.291 159.892C712.291 165.804 711.232 171.244 709.113 176.212C706.995 181.179 704.017 185.517 700.18 189.239C696.358 192.961 691.82 195.824 686.595 197.829C681.37 199.833 675.672 200.849 669.531 200.849ZM669.531 187.879C673.553 187.879 677.247 187.192 680.625 185.832C684.004 184.472 686.938 182.539 689.444 180.034C691.949 177.529 693.896 174.58 695.299 171.158C696.702 167.751 697.403 164.001 697.403 159.906C697.403 155.812 696.716 152.061 695.356 148.64C693.996 145.233 692.035 142.269 689.501 139.764C686.953 137.259 684.004 135.326 680.625 133.966C677.247 132.606 673.553 131.919 669.531 131.919C665.508 131.919 661.771 132.606 658.321 133.966C654.871 135.326 651.894 137.287 649.388 139.821C646.883 142.355 644.908 145.319 643.476 148.697C642.03 152.076 641.314 155.812 641.314 159.906C641.314 164.001 642.03 167.637 643.476 171.058C644.908 174.465 646.883 177.443 649.388 179.991C651.894 182.539 654.871 184.486 658.321 185.846C661.771 187.206 665.508 187.893 669.531 187.893V187.879Z" fill="#3D3D3C"/>
<path d="M727.982 199.704V120.094H742.77V187.192H784.4V199.704H727.996H727.982Z" fill="#3D3D3C"/>
<defs>
<linearGradient id="paint0_linear_167_3200" x1="-32.9261" y1="119.894" x2="265.041" y2="119.894" gradientUnits="userSpaceOnUse">
<stop offset="0.1" stop-color="#F76FAF"/>
<stop offset="0.15" stop-color="#EA72B2"/>
<stop offset="0.23" stop-color="#C87ABD"/>
<stop offset="0.34" stop-color="#9188CE"/>
<stop offset="0.46" stop-color="#5199E3"/>
<stop offset="0.53" stop-color="#5AABBB"/>
<stop offset="0.68" stop-color="#70D467"/>
<stop offset="0.7" stop-color="#7ED15F"/>
<stop offset="0.77" stop-color="#ACCA47"/>
<stop offset="0.84" stop-color="#D0C435"/>
<stop offset="0.9" stop-color="#E9C027"/>
<stop offset="0.96" stop-color="#F9BD1F"/>
<stop offset="1" stop-color="#FFBD1D"/>
</linearGradient>
<linearGradient id="paint1_linear_167_3200" x1="-66.1815" y1="235.25" x2="298.296" y2="4.55244" gradientUnits="userSpaceOnUse">
<stop stop-color="#FF00FF"/>
<stop offset="1" stop-color="#0000FF"/>
</linearGradient>
</defs>
</svg>
