<svg width="17" height="16" viewBox="0 0 17 16" fill="none" xmlns="http://www.w3.org/2000/svg">
<path d="M15.95 4.12C15.8595 3.77912 15.6805 3.46823 15.4312 3.21885C15.1818 2.96947 14.8709 2.79047 14.53 2.7C12.4565 2.44791 10.3686 2.33432 8.28001 2.36C6.19144 2.33432 4.10347 2.44791 2.03001 2.7C1.68914 2.79047 1.37825 2.96947 1.12887 3.21885C0.879487 3.46823 0.700484 3.77912 0.61001 4.12C0.382435 5.40063 0.271979 6.69933 0.28001 8C0.271979 9.30067 0.382435 10.5994 0.61001 11.88C0.700484 12.2209 0.879487 12.5318 1.12887 12.7811C1.37825 13.0305 1.68914 13.2095 2.03001 13.3C4.10347 13.5521 6.19144 13.6657 8.28001 13.64C10.3686 13.6657 12.4565 13.5521 14.53 13.3C14.8709 13.2095 15.1818 13.0305 15.4312 12.7811C15.6805 12.5318 15.8595 12.2209 15.95 11.88C16.1776 10.5994 16.288 9.30067 16.28 8C16.288 6.69933 16.1776 5.40063 15.95 4.12ZM6.64001 10.38V5.62L10.83 8L6.64001 10.38Z" fill="#4D5F71"/>
</svg>
